<?xml version="1.0" encoding="iso-8859-1"?>
<!-- Generator: Adobe Illustrator 24.0.2, SVG Export Plug-In . SVG Version: 6.00 Build 0)  -->
<svg version="1.1" xmlns="http://www.w3.org/2000/svg" xmlns:xlink="http://www.w3.org/1999/xlink" x="0px" y="0px"
	 viewBox="0 0 1920 1080" style="enable-background:new 0 0 1920 1080;" xml:space="preserve">
<g id="finger_4">
	<path style="fill:#FFC4B8;" d="M1069.011,569.979l-0.996,0.228l-0.996,0.228l-0.996,0.228l-0.996,0.228l-0.996,0.228l-0.996,0.228
		l-0.996,0.228l-0.996,0.228l1.286,3.951l1.286,3.951l1.286,3.951l1.286,3.951l1.286,3.951l1.286,3.951l1.286,3.951l1.286,3.951
		c0.072,0.218,0.158,0.426,0.256,0.622c0.099,0.196,0.21,0.38,0.332,0.55c0.122,0.17,0.254,0.327,0.394,0.469
		c0.14,0.142,0.289,0.269,0.443,0.379c0.154,0.11,0.315,0.204,0.479,0.28s0.333,0.133,0.503,0.171
		c0.17,0.038,0.342,0.056,0.514,0.053s0.343-0.027,0.511-0.074l0,0l0,0l0,0l0,0l0,0l0,0l0,0l0,0
		c0.168-0.047,0.326-0.114,0.474-0.199s0.284-0.189,0.408-0.308c0.125-0.119,0.237-0.254,0.337-0.403s0.186-0.31,0.259-0.483
		s0.132-0.357,0.175-0.549c0.044-0.192,0.073-0.393,0.086-0.6c0.013-0.207,0.01-0.42-0.01-0.637c-0.02-0.217-0.057-0.438-0.112-0.66
		l-0.921-4.005l-0.921-4.005l-0.921-4.005l-0.921-4.005l-0.921-4.005l-0.921-4.005l-0.921-4.005L1069.011,569.979z"/>
	
		<rect x="0.5" y="0.5" style="opacity:0;fill:none;stroke:#EE9077;stroke-width:0.8923;stroke-linecap:round;stroke-linejoin:round;stroke-miterlimit:10;" width="1920" height="1080"/>
</g>
<g id="&#x5716;&#x5C64;_1">
</g>
</svg>
