<?xml version="1.0" encoding="iso-8859-1"?>
<!-- Generator: Adobe Illustrator 24.0.2, SVG Export Plug-In . SVG Version: 6.00 Build 0)  -->
<svg version="1.1" xmlns="http://www.w3.org/2000/svg" xmlns:xlink="http://www.w3.org/1999/xlink" x="0px" y="0px"
	 viewBox="0 0 1920 1080" style="enable-background:new 0 0 1920 1080;" xml:space="preserve">
<g id="finger_4_a">
	<path style="fill:#FFC4B8;" d="M808.065,569.979l0.996,0.228l0.996,0.228l0.996,0.228l0.996,0.228l0.996,0.228l0.996,0.228
		l0.996,0.228l0.996,0.228l-1.286,3.951l-1.286,3.951l-1.286,3.951l-1.286,3.951l-1.286,3.951l-1.286,3.951l-1.286,3.951
		l-1.286,3.951c-0.072,0.218-0.158,0.426-0.256,0.622s-0.21,0.38-0.331,0.55c-0.122,0.17-0.254,0.327-0.394,0.469
		c-0.14,0.142-0.289,0.269-0.443,0.379c-0.154,0.11-0.315,0.204-0.479,0.28s-0.333,0.133-0.503,0.171
		c-0.17,0.038-0.342,0.056-0.514,0.053s-0.343-0.027-0.511-0.074l0,0l0,0l0,0l0,0l0,0l0,0l0,0l0,0
		c-0.168-0.047-0.326-0.114-0.474-0.199c-0.147-0.085-0.284-0.189-0.408-0.308c-0.125-0.119-0.237-0.254-0.337-0.403
		c-0.1-0.148-0.186-0.31-0.259-0.483c-0.073-0.173-0.132-0.357-0.175-0.549c-0.044-0.192-0.073-0.393-0.086-0.6
		c-0.013-0.207-0.01-0.42,0.01-0.637c0.02-0.217,0.057-0.438,0.112-0.66l0.921-4.005l0.921-4.005l0.921-4.005l0.921-4.005
		l0.921-4.005l0.921-4.005l0.921-4.005L808.065,569.979z"/>
	
		<rect x="0.5" y="0.5" style="opacity:0;fill:none;stroke:#EE9077;stroke-width:0.8923;stroke-linecap:round;stroke-linejoin:round;stroke-miterlimit:10;" width="1920" height="1080"/>
</g>
<g id="&#x5716;&#x5C64;_1">
</g>
</svg>
