<?xml version="1.0" encoding="iso-8859-1"?>
<!-- Generator: Adobe Illustrator 24.0.2, SVG Export Plug-In . SVG Version: 6.00 Build 0)  -->
<svg version="1.1" xmlns="http://www.w3.org/2000/svg" xmlns:xlink="http://www.w3.org/1999/xlink" x="0px" y="0px"
	 viewBox="0 0 1920 1080" style="enable-background:new 0 0 1920 1080;" xml:space="preserve">
<g id="finger_3_a">
	<path style="fill:#FFC4B8;" d="M812.866,572.153l1.021-0.387l1.021-0.387l1.021-0.387l1.021-0.387l1.021-0.387l1.021-0.387
		l1.021-0.387l1.021-0.387l-0.598,5.035l-0.598,5.035l-0.598,5.035l-0.598,5.035l-0.598,5.035l-0.598,5.035l-0.598,5.035
		l-0.598,5.035c-0.026,0.228-0.068,0.448-0.125,0.66c-0.057,0.211-0.129,0.413-0.213,0.604c-0.085,0.191-0.182,0.37-0.291,0.537
		c-0.109,0.166-0.228,0.32-0.357,0.458s-0.267,0.261-0.413,0.368c-0.146,0.106-0.299,0.195-0.458,0.266
		c-0.159,0.07-0.324,0.122-0.492,0.152c-0.169,0.031-0.341,0.04-0.516,0.027l0,0l0,0l0,0l0,0l0,0l0,0l0,0l0,0
		c-0.174-0.013-0.343-0.048-0.505-0.103c-0.162-0.055-0.316-0.13-0.463-0.222s-0.284-0.203-0.412-0.329
		c-0.128-0.126-0.245-0.268-0.352-0.423c-0.106-0.155-0.201-0.324-0.283-0.504s-0.151-0.371-0.206-0.572
		c-0.055-0.2-0.095-0.41-0.119-0.627s-0.033-0.44-0.024-0.669l0.23-4.601l0.23-4.601l0.23-4.601l0.23-4.601l0.23-4.601l0.23-4.601
		l0.23-4.601L812.866,572.153z"/>
	
		<rect x="0.5" y="0.5" style="opacity:0;fill:none;stroke:#EE9077;stroke-width:0.8923;stroke-linecap:round;stroke-linejoin:round;stroke-miterlimit:10;" width="1920" height="1080"/>
</g>
<g id="&#x5716;&#x5C64;_1">
</g>
</svg>
