<?xml version="1.0" encoding="iso-8859-1"?>
<!-- Generator: Adobe Illustrator 24.0.2, SVG Export Plug-In . SVG Version: 6.00 Build 0)  -->
<svg version="1.1" xmlns="http://www.w3.org/2000/svg" xmlns:xlink="http://www.w3.org/1999/xlink" x="0px" y="0px"
	 viewBox="0 0 1920 1080" style="enable-background:new 0 0 1920 1080;" xml:space="preserve">
<g id="finger_1_a">
	<path style="fill:#FFC4B8;" d="M823.247,567.719l0.758-2.118l0.758-2.118l0.758-2.118l0.758-2.118l0.758-2.118l0.758-2.118
		l0.758-2.118l0.758-2.118l1.191,4.039l1.19,4.039l1.191,4.039l1.191,4.039l1.191,4.039l1.19,4.039l1.191,4.039l1.191,4.039
		c0.093,0.21,0.168,0.422,0.226,0.633s0.098,0.421,0.121,0.628c0.023,0.207,0.03,0.41,0.02,0.608
		c-0.01,0.197-0.036,0.389-0.078,0.572c-0.042,0.183-0.099,0.357-0.172,0.521c-0.073,0.163-0.16,0.316-0.263,0.454
		c-0.102,0.139-0.219,0.264-0.35,0.373c-0.131,0.109-0.276,0.202-0.434,0.276l0,0l0,0l0,0l0,0l0,0l0,0l0,0l0,0
		c-0.158,0.074-0.322,0.126-0.49,0.157c-0.168,0.031-0.34,0.042-0.514,0.033s-0.349-0.037-0.524-0.084
		c-0.175-0.047-0.349-0.112-0.519-0.195c-0.171-0.083-0.339-0.182-0.501-0.299c-0.162-0.116-0.319-0.248-0.468-0.395
		c-0.149-0.147-0.29-0.309-0.421-0.485c-0.131-0.176-0.252-0.366-0.36-0.568l-1.358-2.2l-1.358-2.2l-1.358-2.2l-1.358-2.2
		l-1.358-2.2l-1.358-2.2l-1.358-2.2L823.247,567.719z"/>
	
		<rect x="0.5" y="0.5" style="opacity:0;fill:none;stroke:#EE9077;stroke-width:0.8923;stroke-linecap:round;stroke-linejoin:round;stroke-miterlimit:10;" width="1920" height="1080"/>
</g>
<g id="&#x5716;&#x5C64;_1">
</g>
</svg>
