<?xml version="1.0" encoding="iso-8859-1"?>
<!-- Generator: Adobe Illustrator 24.0.2, SVG Export Plug-In . SVG Version: 6.00 Build 0)  -->
<svg version="1.1" xmlns="http://www.w3.org/2000/svg" xmlns:xlink="http://www.w3.org/1999/xlink" x="0px" y="0px"
	 viewBox="0 0 1920 1080" style="enable-background:new 0 0 1920 1080;" xml:space="preserve">
<g id="finger_5">
	<path style="fill:#FFC4B8;" d="M1071.426,561.922l-0.974,0.438l-0.974,0.438l-0.974,0.438l-0.974,0.438l-0.974,0.438l-0.974,0.438
		l-0.974,0.438l-0.974,0.438l1.806,3.514l1.806,3.514l1.806,3.514l1.806,3.514l1.806,3.514l1.806,3.514l1.806,3.514l1.806,3.514
		c0.105,0.205,0.223,0.397,0.352,0.575c0.129,0.178,0.267,0.343,0.415,0.493c0.147,0.15,0.302,0.285,0.463,0.403
		c0.161,0.119,0.328,0.221,0.498,0.307c0.17,0.085,0.343,0.153,0.518,0.203s0.35,0.081,0.524,0.092s0.347,0.003,0.516-0.026
		s0.334-0.079,0.493-0.151l0,0l0,0l0,0l0,0l0,0l0,0l0,0l0,0c0.159-0.072,0.304-0.162,0.436-0.269c0.132-0.107,0.25-0.23,0.354-0.367
		c0.104-0.137,0.194-0.288,0.269-0.449c0.075-0.162,0.135-0.335,0.179-0.517c0.044-0.182,0.073-0.372,0.086-0.569
		s0.01-0.4-0.01-0.606c-0.02-0.207-0.057-0.417-0.111-0.628c-0.054-0.211-0.126-0.424-0.215-0.635l-1.428-3.684l-1.428-3.684
		l-1.428-3.684l-1.428-3.684l-1.428-3.684l-1.428-3.684l-1.428-3.684L1071.426,561.922z"/>
	
		<rect x="0.5" y="0.5" style="opacity:0;fill:none;stroke:#EE9077;stroke-width:0.8923;stroke-linecap:round;stroke-linejoin:round;stroke-miterlimit:10;" width="1920" height="1080"/>
	
		<rect x="0.5" y="0.5" style="opacity:0;fill:none;stroke:#EE9077;stroke-width:0.8923;stroke-linecap:round;stroke-linejoin:round;stroke-miterlimit:10;" width="1920" height="1080"/>
</g>
<g id="&#x5716;&#x5C64;_1">
</g>
</svg>
