<?xml version="1.0" encoding="iso-8859-1"?>
<!-- Generator: Adobe Illustrator 24.0.2, SVG Export Plug-In . SVG Version: 6.00 Build 0)  -->
<svg version="1.1" xmlns="http://www.w3.org/2000/svg" xmlns:xlink="http://www.w3.org/1999/xlink" x="0px" y="0px"
	 viewBox="0 0 1920 1080" style="enable-background:new 0 0 1920 1080;" xml:space="preserve">
<g id="finger_2">
	<path style="fill:#FFC4B8;" d="M1059.63,570.923l-0.978-0.181l-0.978-0.181l-0.978-0.181l-0.978-0.181l-0.978-0.181l-0.978-0.181
		l-0.978-0.181l-0.978-0.181l-0.497,4.32l-0.497,4.32l-0.497,4.32l-0.497,4.32l-0.497,4.32l-0.497,4.32l-0.497,4.32l-0.497,4.32
		c-0.029,0.227-0.041,0.452-0.036,0.67s0.026,0.431,0.063,0.636c0.037,0.205,0.089,0.402,0.154,0.589
		c0.066,0.187,0.146,0.363,0.238,0.528c0.092,0.164,0.197,0.316,0.314,0.453c0.116,0.137,0.244,0.259,0.382,0.364
		c0.138,0.105,0.286,0.193,0.442,0.262c0.157,0.069,0.322,0.118,0.495,0.146l0,0l0,0l0,0l0,0l0,0l0,0l0,0l0,0
		c0.172,0.028,0.345,0.032,0.515,0.016s0.339-0.053,0.503-0.11c0.164-0.056,0.324-0.132,0.479-0.225s0.303-0.204,0.443-0.33
		c0.141-0.126,0.273-0.268,0.396-0.424c0.123-0.156,0.236-0.326,0.337-0.508c0.101-0.182,0.19-0.377,0.266-0.582
		s0.137-0.42,0.183-0.645l0.828-4.244l0.828-4.244l0.828-4.244l0.828-4.244l0.828-4.244l0.828-4.244l0.828-4.244L1059.63,570.923z"
		/>
	
		<rect x="0.5" y="0.5" style="opacity:0;fill:none;stroke:#EE9077;stroke-width:0.8923;stroke-linecap:round;stroke-linejoin:round;stroke-miterlimit:10;" width="1920" height="1080"/>
</g>
<g id="&#x5716;&#x5C64;_1">
</g>
</svg>
