<?xml version="1.0" encoding="iso-8859-1"?>
<!-- Generator: Adobe Illustrator 24.0.2, SVG Export Plug-In . SVG Version: 6.00 Build 0)  -->
<svg version="1.1" xmlns="http://www.w3.org/2000/svg" xmlns:xlink="http://www.w3.org/1999/xlink" x="0px" y="0px"
	 viewBox="0 0 1920 1080" style="enable-background:new 0 0 1920 1080;" xml:space="preserve">
<g id="finger_5_a">
	<path style="fill:#FFC4B8;" d="M805.65,561.922l0.974,0.438l0.974,0.438l0.974,0.438l0.974,0.438l0.974,0.438l0.974,0.438
		l0.974,0.438l0.974,0.438l-1.806,3.514l-1.806,3.514l-1.806,3.514l-1.806,3.514l-1.806,3.514l-1.806,3.514l-1.806,3.514
		l-1.806,3.514c-0.105,0.205-0.223,0.397-0.352,0.575c-0.129,0.178-0.268,0.343-0.415,0.493s-0.302,0.285-0.463,0.403
		c-0.161,0.119-0.328,0.221-0.498,0.307c-0.17,0.085-0.344,0.153-0.518,0.203c-0.174,0.05-0.35,0.081-0.524,0.092
		s-0.347,0.003-0.516-0.026s-0.334-0.079-0.493-0.151l0,0l0,0l0,0l0,0l0,0l0,0l0,0l0,0c-0.159-0.072-0.304-0.162-0.436-0.269
		c-0.132-0.107-0.25-0.23-0.354-0.367s-0.194-0.288-0.269-0.449s-0.135-0.335-0.179-0.517s-0.073-0.372-0.086-0.569
		s-0.01-0.4,0.01-0.606c0.02-0.207,0.057-0.417,0.111-0.628c0.054-0.211,0.126-0.424,0.215-0.635l1.428-3.684l1.428-3.684
		l1.428-3.684l1.428-3.684l1.428-3.684l1.428-3.684l1.428-3.684L805.65,561.922z"/>
	
		<rect x="0.5" y="0.5" style="opacity:0;fill:none;stroke:#EE9077;stroke-width:0.8923;stroke-linecap:round;stroke-linejoin:round;stroke-miterlimit:10;" width="1920" height="1080"/>
</g>
<g id="&#x5716;&#x5C64;_1">
</g>
</svg>
