<?xml version="1.0" encoding="iso-8859-1"?>
<!-- Generator: Adobe Illustrator 24.0.2, SVG Export Plug-In . SVG Version: 6.00 Build 0)  -->
<svg version="1.1" xmlns="http://www.w3.org/2000/svg" xmlns:xlink="http://www.w3.org/1999/xlink" x="0px" y="0px"
	 viewBox="0 0 1920 1080" style="enable-background:new 0 0 1920 1080;" xml:space="preserve">
<g id="foot_b">
	<path style="fill:#FFC4B8;" d="M984.923,874.991l0.71,6.254l0.71,6.254l0.71,6.254l0.71,6.254l0.71,6.254l0.71,6.254l0.71,6.254
		l0.71,6.254l10.246-0.068l10.246-0.068l10.246-0.068l10.246-0.068l10.246-0.068l10.246-0.068l10.246-0.068l10.246-0.068
		c0,0-0.061-0.174-0.222-0.493c-0.161-0.319-0.422-0.782-0.821-1.36c-0.4-0.578-0.938-1.272-1.653-2.051s-1.609-1.644-2.718-2.565
		c-1.109-0.921-2.435-1.898-4.016-2.902s-3.416-2.035-5.546-3.063c-2.13-1.028-4.553-2.054-7.309-3.047
		c-2.756-0.993-5.844-1.955-9.304-2.854c-3.21-0.835-6.056-2.138-8.579-3.779s-4.723-3.621-6.641-5.809
		c-1.918-2.188-3.554-4.584-4.948-7.058s-2.547-5.026-3.5-7.526c-0.952-2.5-1.704-4.948-2.296-7.213s-1.024-4.349-1.337-6.119
		c-0.313-1.771-0.507-3.229-0.623-4.244c-0.116-1.015-0.153-1.588-0.153-1.588l-3.586,0.186l-3.586,0.186l-3.586,0.186l-3.586,0.186
		l-3.586,0.186l-3.586,0.186l-3.586,0.186l-3.586,0.186l0.088,1.337l0.088,1.337l0.088,1.337l0.088,1.337l0.088,1.337l0.088,1.337
		l0.088,1.337L984.923,874.991z"/>
	<path style="fill:#347FAD;" d="M1000.379,905.772c-0.363-0.175-0.715-0.362-1.056-0.562s-0.671-0.412-0.988-0.637
		c-3.142-2.228-4.256-5.207-5.022-7.939c-0.766-2.732-1.183-5.217-2.932-6.457c-1.044-0.74-2.374-0.411-3.576,0.376
		c-1.202,0.788-2.277,2.035-2.812,3.13c-1.702,3.49,1.725,8.37,5.913,11.449C994.094,908.213,999.041,909.49,1000.379,905.772z"/>
	<path style="fill:#3E226F;" d="M1086.237,926.917c0,0-0.004-0.028-0.013-0.082c-0.009-0.054-0.024-0.133-0.046-0.236
		c-0.022-0.102-0.051-0.227-0.088-0.372c-0.037-0.145-0.084-0.31-0.14-0.492s-0.123-0.382-0.201-0.596
		c-0.078-0.214-0.169-0.442-0.272-0.683c-0.104-0.24-0.22-0.492-0.352-0.753c-0.132-0.261-0.279-0.53-0.442-0.806
		c-0.163-0.276-0.343-0.558-0.542-0.843c-0.198-0.285-0.414-0.574-0.65-0.863c-0.236-0.289-0.492-0.579-0.769-0.866
		c-0.277-0.287-0.575-0.573-0.896-0.853c-0.321-0.28-0.665-0.556-1.034-0.823c-0.369-0.268-0.761-0.527-1.18-0.776
		s-0.864-0.488-1.337-0.713s-0.973-0.437-1.503-0.633c-0.405-0.15-0.913-0.335-1.512-0.555s-1.288-0.473-2.054-0.758
		s-1.611-0.604-2.52-0.952c-0.909-0.349-1.882-0.728-2.907-1.136c-1.025-0.408-2.102-0.846-3.218-1.31
		c-1.116-0.465-2.271-0.957-3.451-1.474s-2.388-1.061-3.607-1.628c-1.22-0.567-2.453-1.159-3.686-1.773
		c-1.233-0.614-2.467-1.25-3.688-1.907s-2.429-1.335-3.612-2.032c-1.183-0.697-2.34-1.413-3.459-2.146
		c-1.119-0.733-2.199-1.484-3.229-2.251c-1.029-0.767-2.007-1.549-2.921-2.345c-0.914-0.797-1.764-1.607-2.536-2.43
		c-0.773-0.823-1.469-1.659-2.074-2.505c-0.606-0.846-1.122-1.704-1.535-2.57c-0.375-0.786-0.749-1.456-1.12-2.02
		c-0.372-0.564-0.741-1.023-1.106-1.389s-0.727-0.637-1.084-0.826c-0.357-0.189-0.708-0.297-1.054-0.333
		c-0.345-0.037-0.684-0.003-1.016,0.091c-0.331,0.093-0.655,0.246-0.969,0.445c-0.314,0.2-0.62,0.448-0.915,0.731
		c-0.295,0.284-0.58,0.603-0.853,0.948s-0.534,0.713-0.782,1.095c-0.248,0.382-0.483,0.777-0.704,1.173s-0.427,0.794-0.618,1.183
		c-0.191,0.388-0.366,0.766-0.523,1.123c-0.158,0.357-0.299,0.691-0.421,0.993c-0.122,0.302-0.226,0.571-0.311,0.795
		c-0.084,0.224-0.149,0.404-0.192,0.528c-0.043,0.124-0.066,0.191-0.066,0.191s-0.021,0.024-0.063,0.069
		c-0.042,0.045-0.104,0.112-0.187,0.196c-0.082,0.085-0.184,0.187-0.305,0.305c-0.121,0.118-0.261,0.251-0.419,0.397
		c-0.158,0.146-0.334,0.304-0.527,0.471c-0.193,0.167-0.404,0.344-0.631,0.527c-0.227,0.183-0.47,0.372-0.729,0.565
		s-0.533,0.389-0.823,0.586c-0.289,0.197-0.593,0.394-0.911,0.589c-0.318,0.195-0.65,0.388-0.995,0.575s-0.703,0.369-1.073,0.542
		s-0.753,0.339-1.147,0.492s-0.799,0.296-1.215,0.425c-0.416,0.128-0.842,0.242-1.279,0.339c-0.436,0.097-0.882,0.177-1.337,0.236
		c-0.455,0.06-0.919,0.099-1.391,0.115c-0.965,0.033-1.895,0.038-2.791,0.018c-0.896-0.02-1.758-0.066-2.586-0.133
		c-0.828-0.067-1.623-0.156-2.385-0.263c-0.762-0.107-1.491-0.232-2.187-0.372s-1.36-0.295-1.992-0.461
		c-0.632-0.166-1.232-0.344-1.801-0.529c-0.569-0.185-1.107-0.379-1.614-0.577c-0.507-0.198-0.983-0.4-1.429-0.604
		c-0.446-0.203-0.862-0.408-1.248-0.61c-0.386-0.202-0.743-0.402-1.071-0.595c-0.328-0.194-0.627-0.382-0.897-0.56
		c-0.27-0.179-0.512-0.348-0.726-0.505c-0.214-0.157-0.4-0.301-0.559-0.429c-0.159-0.128-0.29-0.24-0.395-0.332
		s-0.183-0.165-0.234-0.214s-0.077-0.076-0.077-0.076s-0.034,0.08-0.096,0.232c-0.062,0.153-0.152,0.378-0.264,0.669
		c-0.112,0.291-0.246,0.647-0.395,1.062c-0.149,0.415-0.314,0.888-0.488,1.412s-0.358,1.1-0.544,1.719s-0.376,1.283-0.562,1.983
		c-0.186,0.7-0.37,1.437-0.543,2.204s-0.338,1.563-0.487,2.382c-0.149,0.819-0.282,1.66-0.393,2.517
		c-0.111,0.857-0.201,1.728-0.262,2.608s-0.094,1.768-0.093,2.657c0.001,0.889,0.037,1.779,0.113,2.662s0.193,1.761,0.356,2.624
		c0.163,0.864,0.374,1.714,0.637,2.544c0.263,0.83,0.58,1.639,0.955,2.42c0.376,0.781,0.81,1.534,1.311,2.253l6.437,0.081
		l6.437,0.081l6.437,0.081l6.437,0.081l6.437,0.081l6.437,0.081l6.437,0.081l6.437,0.081l6.437,0.081l6.437,0.081l6.437,0.081
		l6.437,0.081l6.437,0.081l6.437,0.081l6.437,0.081L1086.237,926.917z"/>
	<polygon style="fill:#FFFFFF;" points="1005.163,929.372 1005.815,929.688 1006.468,930.004 1007.121,930.32 1007.774,930.636 
		1008.427,930.952 1009.08,931.268 1009.733,931.585 1010.385,931.901 1011.786,929.162 1013.187,926.424 1014.588,923.686 
		1015.989,920.948 1017.39,918.209 1018.791,915.471 1020.192,912.733 1021.593,909.994 1020.94,909.678 1020.287,909.362 
		1019.634,909.046 1018.981,908.73 1018.329,908.414 1017.676,908.098 1017.023,907.782 1016.37,907.466 1014.969,910.204 
		1013.568,912.942 1012.167,915.681 1010.766,918.419 1009.365,921.157 1007.964,923.896 1006.563,926.634 	"/>
	<polygon style="fill:#FFFFFF;" points="995.001,926.884 995.654,927.2 996.306,927.517 996.959,927.833 997.612,928.149 
		998.265,928.465 998.918,928.781 999.571,929.097 1000.224,929.413 1001.625,926.675 1003.025,923.936 1004.426,921.198 
		1005.827,918.46 1007.228,915.722 1008.629,912.983 1010.03,910.245 1011.431,907.507 1010.778,907.191 1010.125,906.875 
		1009.472,906.559 1008.82,906.242 1008.167,905.926 1007.514,905.61 1006.861,905.294 1006.208,904.978 1004.807,907.716 
		1003.406,910.455 1002.005,913.193 1000.604,915.931 999.204,918.67 997.803,921.408 996.402,924.146 	"/>
	<path style="fill:#CCE8ED;" d="M1086.237,926.917c0,0,0.007,0.119,0.002,0.328c-0.005,0.209-0.02,0.508-0.066,0.868
		s-0.12,0.78-0.242,1.232c-0.122,0.452-0.292,0.935-0.528,1.421c-0.236,0.486-0.537,0.974-0.922,1.435
		c-0.385,0.461-0.854,0.895-1.425,1.273c-0.571,0.378-1.244,0.699-2.037,0.936c-0.793,0.236-1.706,0.387-2.757,0.423l-11.364,0.005
		l-11.364,0.004l-11.364,0.005l-11.364,0.004l-11.364,0.005l-11.364,0.004l-11.364,0.005l-11.364,0.005
		c-0.307,0-0.608-0.03-0.901-0.086c-0.293-0.057-0.576-0.14-0.848-0.247c-0.271-0.107-0.53-0.238-0.773-0.388
		c-0.243-0.151-0.47-0.322-0.677-0.51c-0.207-0.188-0.395-0.394-0.56-0.613c-0.165-0.219-0.306-0.452-0.421-0.696
		c-0.115-0.244-0.203-0.498-0.261-0.759c-0.058-0.262-0.085-0.53-0.079-0.803l0.015-0.663l0.015-0.663l0.015-0.663l0.015-0.663
		l0.015-0.663l0.015-0.663l0.015-0.663l0.015-0.663l12.91,0.182l12.91,0.182l12.91,0.182l12.91,0.182l12.91,0.182l12.91,0.182
		l12.91,0.182L1086.237,926.917z"/>
	<path style="fill:none;stroke:#347FAD;stroke-width:1.1152;stroke-linecap:round;stroke-linejoin:round;stroke-miterlimit:10;" d="
		M1057.398,916.702c-0.762-0.146-1.559-0.33-2.384-0.549c-0.825-0.219-1.679-0.473-2.555-0.759s-1.775-0.603-2.69-0.95
		s-1.846-0.721-2.788-1.121c-0.942-0.4-1.894-0.826-2.851-1.274c-0.957-0.448-1.917-0.918-2.877-1.407
		c-0.959-0.489-1.917-0.997-2.867-1.521c-0.95-0.524-1.892-1.063-2.82-1.616c-0.928-0.552-1.843-1.117-2.738-1.691
		s-1.77-1.158-2.619-1.747c-0.849-0.59-1.672-1.185-2.464-1.784s-1.551-1.2-2.273-1.802c-0.722-0.601-1.405-1.203-2.045-1.8
		s-1.236-1.192-1.782-1.779s-1.042-1.168-1.482-1.739c-0.44-0.571-0.824-1.132-1.146-1.68"/>
	<path style="fill:#FFFFFF;" d="M1032.105,905.391l0.981-0.752l0.981-0.752l0.981-0.752l0.981-0.752l0.981-0.752l0.981-0.752
		l0.981-0.752l0.981-0.752c0.049-0.038,0.093-0.079,0.131-0.124s0.071-0.093,0.099-0.143c0.028-0.05,0.05-0.103,0.066-0.156
		s0.028-0.109,0.033-0.165c0.005-0.056,0.005-0.113,0-0.169c-0.006-0.056-0.017-0.113-0.035-0.168
		c-0.017-0.055-0.04-0.109-0.069-0.162c-0.029-0.052-0.064-0.103-0.104-0.151l0,0l0,0l0,0l0,0l0,0l0,0l0,0l0,0
		c-0.041-0.048-0.085-0.091-0.133-0.128c-0.048-0.038-0.099-0.071-0.152-0.098c-0.053-0.028-0.109-0.05-0.166-0.067
		c-0.057-0.017-0.115-0.029-0.174-0.036c-0.059-0.007-0.118-0.008-0.177-0.004c-0.059,0.004-0.118,0.014-0.175,0.029
		c-0.057,0.015-0.114,0.036-0.168,0.062c-0.054,0.026-0.106,0.058-0.155,0.096l-0.981,0.752l-0.981,0.752l-0.981,0.752l-0.981,0.752
		l-0.981,0.752l-0.981,0.752l-0.981,0.752l-0.981,0.752c-0.049,0.038-0.093,0.079-0.131,0.124c-0.038,0.045-0.072,0.093-0.099,0.143
		s-0.05,0.103-0.066,0.156c-0.017,0.054-0.028,0.109-0.033,0.165c-0.005,0.056-0.005,0.113,0,0.169
		c0.006,0.056,0.017,0.113,0.035,0.168c0.017,0.055,0.04,0.109,0.069,0.162c0.029,0.052,0.064,0.103,0.104,0.151l0,0l0,0l0,0l0,0
		l0,0l0,0l0,0l0,0c0.041,0.048,0.085,0.091,0.133,0.128c0.048,0.038,0.099,0.071,0.152,0.098c0.053,0.028,0.109,0.05,0.166,0.067
		c0.057,0.017,0.115,0.029,0.174,0.036c0.059,0.007,0.118,0.008,0.177,0.004s0.118-0.014,0.175-0.029
		c0.057-0.015,0.114-0.036,0.168-0.062S1032.056,905.428,1032.105,905.391z"/>
	<path style="fill:#FFFFFF;" d="M1037.125,908.911l0.981-0.752l0.981-0.752l0.981-0.752l0.981-0.752l0.981-0.752l0.981-0.752
		l0.981-0.752l0.981-0.752c0.049-0.038,0.093-0.079,0.131-0.124c0.038-0.045,0.072-0.093,0.099-0.143s0.05-0.103,0.066-0.156
		c0.017-0.054,0.028-0.109,0.033-0.165s0.005-0.113,0-0.169c-0.006-0.056-0.017-0.113-0.035-0.168
		c-0.017-0.055-0.04-0.109-0.069-0.162c-0.029-0.052-0.064-0.103-0.104-0.151l0,0l0,0l0,0l0,0l0,0l0,0l0,0l0,0
		c-0.041-0.048-0.085-0.091-0.133-0.128s-0.099-0.071-0.152-0.098s-0.109-0.05-0.166-0.067c-0.057-0.017-0.115-0.029-0.174-0.036
		c-0.059-0.007-0.118-0.008-0.177-0.004c-0.059,0.004-0.118,0.014-0.175,0.029c-0.057,0.015-0.114,0.036-0.168,0.062
		c-0.054,0.026-0.106,0.058-0.155,0.096l-0.981,0.752l-0.981,0.752l-0.981,0.752l-0.981,0.752l-0.981,0.752l-0.981,0.752
		l-0.981,0.752l-0.981,0.752c-0.049,0.038-0.093,0.079-0.131,0.124c-0.038,0.045-0.072,0.093-0.099,0.143
		c-0.028,0.05-0.05,0.103-0.066,0.156c-0.017,0.054-0.028,0.109-0.033,0.165s-0.005,0.113,0,0.169
		c0.006,0.056,0.017,0.113,0.035,0.168c0.017,0.055,0.04,0.109,0.069,0.162s0.064,0.103,0.104,0.151l0,0l0,0l0,0l0,0l0,0l0,0l0,0
		l0,0c0.041,0.048,0.085,0.091,0.133,0.128c0.048,0.038,0.099,0.071,0.152,0.098c0.053,0.028,0.109,0.05,0.166,0.067
		c0.057,0.017,0.115,0.029,0.174,0.036c0.059,0.007,0.118,0.008,0.177,0.004c0.059-0.004,0.118-0.014,0.175-0.029
		c0.057-0.015,0.114-0.036,0.168-0.062C1037.024,908.98,1037.076,908.948,1037.125,908.911z"/>
	<path style="fill:#FFFFFF;" d="M1042.557,912.277l0.981-0.752l0.981-0.752l0.981-0.752l0.981-0.752l0.981-0.752l0.981-0.752
		l0.981-0.752l0.981-0.752c0.049-0.038,0.093-0.079,0.131-0.124c0.038-0.045,0.071-0.093,0.099-0.143s0.05-0.103,0.066-0.156
		c0.017-0.054,0.028-0.109,0.033-0.165c0.005-0.056,0.005-0.113,0-0.169c-0.006-0.056-0.017-0.113-0.035-0.168
		c-0.017-0.055-0.04-0.109-0.069-0.162c-0.029-0.052-0.064-0.103-0.104-0.151l0,0l0,0l0,0l0,0l0,0l0,0l0,0l0,0
		c-0.041-0.048-0.085-0.091-0.133-0.128c-0.048-0.038-0.099-0.071-0.152-0.098c-0.053-0.028-0.109-0.05-0.166-0.067
		c-0.057-0.017-0.115-0.029-0.174-0.036c-0.059-0.007-0.118-0.008-0.177-0.004c-0.059,0.004-0.118,0.014-0.175,0.029
		c-0.057,0.015-0.114,0.036-0.168,0.062c-0.054,0.026-0.106,0.058-0.155,0.096l-0.981,0.752l-0.981,0.752l-0.981,0.752l-0.981,0.752
		l-0.981,0.752l-0.981,0.752l-0.981,0.752l-0.981,0.752c-0.049,0.038-0.093,0.079-0.131,0.124c-0.038,0.045-0.071,0.093-0.099,0.143
		c-0.028,0.05-0.05,0.103-0.066,0.156s-0.028,0.109-0.033,0.165s-0.005,0.113,0,0.169c0.006,0.056,0.017,0.113,0.035,0.168
		c0.017,0.055,0.04,0.109,0.069,0.162c0.029,0.052,0.064,0.103,0.104,0.151l0,0l0,0l0,0l0,0l0,0l0,0l0,0l0,0
		c0.041,0.048,0.085,0.091,0.133,0.128c0.048,0.038,0.099,0.071,0.152,0.098c0.053,0.028,0.109,0.05,0.166,0.067
		c0.057,0.017,0.115,0.029,0.174,0.036s0.118,0.008,0.177,0.004c0.059-0.004,0.118-0.014,0.175-0.029
		c0.057-0.015,0.114-0.036,0.168-0.062C1042.456,912.347,1042.508,912.315,1042.557,912.277z"/>
	
		<rect x="0.5" y="0.5" style="opacity:0;fill:none;stroke:#EE9077;stroke-width:0.8923;stroke-linecap:round;stroke-linejoin:round;stroke-miterlimit:10;" width="1920" height="1080"/>
</g>
<g id="&#x5716;&#x5C64;_1">
</g>
</svg>
