<?xml version="1.0" encoding="iso-8859-1"?>
<!-- Generator: Adobe Illustrator 24.0.2, SVG Export Plug-In . SVG Version: 6.00 Build 0)  -->
<svg version="1.1" xmlns="http://www.w3.org/2000/svg" xmlns:xlink="http://www.w3.org/1999/xlink" x="0px" y="0px"
	 viewBox="0 0 1920 1080" style="enable-background:new 0 0 1920 1080;" xml:space="preserve">
<g id="foot">
	<path style="fill:#FFC4B8;" d="M893.189,874.991l-0.71,6.254l-0.71,6.254l-0.71,6.254l-0.71,6.254l-0.71,6.254l-0.71,6.254
		l-0.71,6.254l-0.71,6.254l-10.246-0.068l-10.246-0.068l-10.246-0.068l-10.246-0.068l-10.246-0.068l-10.246-0.068l-10.246-0.068
		l-10.246-0.068c0,0,0.061-0.174,0.222-0.493s0.422-0.782,0.821-1.36c0.4-0.578,0.938-1.272,1.653-2.051
		c0.716-0.779,1.609-1.644,2.718-2.565c1.109-0.921,2.435-1.898,4.015-2.902c1.581-1.004,3.416-2.035,5.546-3.063
		s4.553-2.054,7.309-3.047c2.756-0.993,5.844-1.955,9.304-2.854c3.21-0.835,6.056-2.138,8.579-3.779s4.723-3.621,6.641-5.809
		s3.554-4.584,4.948-7.058c1.394-2.474,2.548-5.026,3.5-7.526c0.952-2.5,1.704-4.948,2.296-7.213s1.024-4.349,1.337-6.119
		c0.313-1.771,0.507-3.229,0.623-4.244c0.116-1.015,0.153-1.588,0.153-1.588l3.586,0.186l3.586,0.186l3.586,0.186l3.586,0.186
		l3.586,0.186l3.586,0.186l3.586,0.186l3.586,0.186l-0.088,1.337l-0.088,1.337l-0.089,1.337l-0.088,1.337l-0.088,1.337l-0.088,1.337
		l-0.088,1.337L893.189,874.991z"/>
	
		<rect x="0.5" y="0.5" style="opacity:0;fill:none;stroke:#EE9077;stroke-width:0.8923;stroke-linecap:round;stroke-linejoin:round;stroke-miterlimit:10;" width="1920" height="1080"/>
</g>
<g id="&#x5716;&#x5C64;_1">
</g>
</svg>
