<?xml version="1.0" encoding="iso-8859-1"?>
<!-- Generator: Adobe Illustrator 24.0.2, SVG Export Plug-In . SVG Version: 6.00 Build 0)  -->
<svg version="1.1" xmlns="http://www.w3.org/2000/svg" xmlns:xlink="http://www.w3.org/1999/xlink" x="0px" y="0px"
	 viewBox="0 0 1920 1080" style="enable-background:new 0 0 1920 1080;" xml:space="preserve">
<g id="hair_1">
	<path style="fill:#330133;" d="M922.627,119.528c1.037,0.328,2.071,0.647,3.103,0.952s2.064,0.597,3.097,0.871
		s2.068,0.53,3.107,0.763c1.039,0.233,2.082,0.444,3.133,0.627c1.05,0.183,2.108,0.339,3.175,0.463
		c1.067,0.124,2.145,0.216,3.234,0.272s2.192,0.076,3.31,0.054s2.251-0.084,3.402-0.192c1.729-0.162,3.331-0.425,4.81-0.773
		c1.479-0.349,2.834-0.783,4.07-1.289c1.236-0.506,2.352-1.083,3.351-1.717c1-0.634,1.883-1.324,2.653-2.056
		s1.428-1.506,1.976-2.307c0.548-0.801,0.987-1.629,1.319-2.469c0.333-0.84,0.559-1.693,0.683-2.543s0.145-1.698,0.067-2.529
		c-0.068-0.723-0.211-1.433-0.426-2.12c-0.216-0.687-0.504-1.352-0.863-1.985c-0.359-0.632-0.789-1.232-1.287-1.79
		c-0.498-0.558-1.064-1.074-1.696-1.538s-1.331-0.877-2.093-1.227c-0.762-0.351-1.588-0.64-2.475-0.859
		c-0.887-0.218-1.836-0.365-2.844-0.431c-1.008-0.066-2.075-0.051-3.199,0.054c-0.354,0.033-0.715,0.075-1.08,0.127
		c-0.366,0.052-0.737,0.112-1.114,0.183c-0.377,0.07-0.759,0.151-1.147,0.24c-0.388,0.09-0.781,0.19-1.18,0.3
		s-0.803,0.23-1.212,0.361s-0.824,0.272-1.244,0.424c-0.42,0.152-0.845,0.315-1.275,0.489c-0.43,0.174-0.866,0.36-1.306,0.556
		c-1.152,0.515-2.209,1.116-3.192,1.784s-1.89,1.404-2.745,2.187c-0.854,0.783-1.655,1.615-2.423,2.474
		c-0.768,0.86-1.504,1.748-2.227,2.646c-0.724,0.898-1.436,1.805-2.157,2.703c-0.721,0.897-1.452,1.785-2.212,2.643
		c-0.761,0.858-1.551,1.688-2.393,2.469C924.485,118.13,923.592,118.863,922.627,119.528z"/>
	<path style="fill:none;stroke:#87195F;stroke-width:0.4462;stroke-linecap:round;stroke-linejoin:round;stroke-miterlimit:10;" d="
		M934.166,112.415c0.523-0.971,1.117-1.889,1.772-2.751c0.655-0.863,1.371-1.671,2.137-2.422c0.766-0.751,1.582-1.446,2.437-2.081
		c0.855-0.636,1.748-1.213,2.67-1.729c0.922-0.516,1.871-0.972,2.838-1.365s1.95-0.723,2.94-0.989
		c0.99-0.266,1.985-0.467,2.976-0.602c0.991-0.135,1.977-0.203,2.947-0.203c0.734,0,1.43,0.051,2.086,0.149
		c0.656,0.098,1.272,0.244,1.846,0.432c0.574,0.188,1.105,0.42,1.593,0.691s0.932,0.58,1.329,0.925
		c0.398,0.345,0.75,0.725,1.054,1.136c0.304,0.411,0.56,0.853,0.767,1.322c0.207,0.469,0.364,0.965,0.469,1.484
		c0.105,0.519,0.159,1.061,0.159,1.623c0,0.258-0.011,0.52-0.034,0.785c-0.023,0.266-0.057,0.535-0.103,0.807
		c-0.046,0.272-0.104,0.548-0.173,0.827c-0.07,0.278-0.151,0.56-0.244,0.844c-0.094,0.284-0.199,0.57-0.317,0.858
		c-0.118,0.288-0.248,0.579-0.39,0.871c-0.142,0.292-0.297,0.586-0.465,0.881c-0.167,0.295-0.348,0.591-0.54,0.889"/>
	
		<rect x="0.5" y="0.5" style="opacity:0;fill:none;stroke:#EE9077;stroke-width:0.8923;stroke-linecap:round;stroke-linejoin:round;stroke-miterlimit:10;" width="1920" height="1080"/>
</g>
<g id="&#x5716;&#x5C64;_1">
</g>
</svg>
