<?xml version="1.0" encoding="iso-8859-1"?>
<!-- Generator: Adobe Illustrator 24.0.2, SVG Export Plug-In . SVG Version: 6.00 Build 0)  -->
<svg version="1.1" xmlns="http://www.w3.org/2000/svg" xmlns:xlink="http://www.w3.org/1999/xlink" x="0px" y="0px"
	 viewBox="0 0 1920 1080" style="enable-background:new 0 0 1920 1080;" xml:space="preserve">
<g id="hair_small">
	<path style="fill:#330133;" d="M926.385,117.456c-0.348-0.443-0.712-0.887-1.091-1.321c-0.379-0.434-0.772-0.858-1.178-1.262
		c-0.406-0.404-0.826-0.786-1.257-1.138c-0.431-0.351-0.875-0.671-1.328-0.948c-0.454-0.277-0.918-0.512-1.391-0.694
		c-0.473-0.182-0.956-0.311-1.446-0.375c-0.49-0.065-0.988-0.065-1.492,0.009c-0.504,0.074-1.015,0.223-1.531,0.457
		c-0.073,0.033-0.143,0.069-0.207,0.107s-0.124,0.078-0.179,0.121s-0.104,0.088-0.146,0.136s-0.08,0.098-0.11,0.152
		c-0.03,0.053-0.054,0.109-0.069,0.168c-0.016,0.059-0.024,0.12-0.025,0.185c0,0.065,0.007,0.132,0.024,0.203
		s0.042,0.144,0.077,0.221c0.005,0.011,0.01,0.022,0.015,0.032c0.005,0.011,0.011,0.022,0.016,0.033
		c0.006,0.011,0.011,0.022,0.018,0.033s0.012,0.022,0.019,0.034c0.006,0.011,0.013,0.023,0.02,0.034
		c0.007,0.011,0.014,0.023,0.021,0.034s0.015,0.023,0.022,0.035c0.008,0.012,0.015,0.023,0.023,0.035
		c0.239,0.352,0.546,0.645,0.906,0.893c0.36,0.247,0.772,0.448,1.223,0.616c0.451,0.168,0.94,0.303,1.452,0.417
		s1.049,0.208,1.594,0.295c0.545,0.086,1.099,0.165,1.647,0.249c0.548,0.084,1.09,0.173,1.611,0.28
		c0.522,0.107,1.022,0.232,1.488,0.388C925.574,117.039,926.004,117.226,926.385,117.456z"/>
	
		<rect x="0.5" y="0.5" style="opacity:0;fill:none;stroke:#EE9077;stroke-width:0.8923;stroke-linecap:round;stroke-linejoin:round;stroke-miterlimit:10;" width="1920" height="1080"/>
</g>
<g id="&#x5716;&#x5C64;_1">
</g>
</svg>
