<?xml version="1.0" encoding="iso-8859-1"?>
<!-- Generator: Adobe Illustrator 24.0.2, SVG Export Plug-In . SVG Version: 6.00 Build 0)  -->
<svg version="1.1" xmlns="http://www.w3.org/2000/svg" xmlns:xlink="http://www.w3.org/1999/xlink" x="0px" y="0px"
	 viewBox="0 0 1920 1080" style="enable-background:new 0 0 1920 1080;" xml:space="preserve">
<g id="hair2">
	<path style="fill:#330133;" d="M942.266,133.019c0.895,0.436,1.787,0.863,2.679,1.276c0.892,0.413,1.785,0.811,2.68,1.192
		s1.794,0.742,2.698,1.081c0.904,0.339,1.814,0.655,2.732,0.944c0.918,0.289,1.845,0.551,2.784,0.781s1.888,0.428,2.852,0.59
		c0.964,0.162,1.942,0.288,2.937,0.374s2.008,0.13,3.04,0.13c1.55,0,2.996-0.115,4.339-0.331s2.585-0.531,3.725-0.931
		s2.181-0.885,3.122-1.439c0.941-0.554,1.784-1.177,2.53-1.854c0.746-0.677,1.395-1.408,1.948-2.177
		c0.554-0.769,1.013-1.576,1.378-2.406c0.366-0.83,0.638-1.683,0.819-2.544c0.181-0.86,0.27-1.728,0.27-2.588
		c0-0.748-0.068-1.491-0.202-2.217s-0.336-1.436-0.602-2.119s-0.598-1.34-0.995-1.961c-0.396-0.62-0.856-1.204-1.38-1.741
		c-0.523-0.537-1.11-1.027-1.758-1.46s-1.358-0.81-2.129-1.119c-0.771-0.309-1.602-0.551-2.492-0.716
		c-0.89-0.165-1.84-0.252-2.848-0.252c-0.318,0-0.641,0.009-0.971,0.026s-0.664,0.044-1.005,0.08
		c-0.341,0.036-0.687,0.081-1.039,0.136s-0.71,0.12-1.074,0.194c-0.363,0.075-0.733,0.159-1.107,0.254
		c-0.375,0.095-0.755,0.2-1.141,0.316c-0.386,0.116-0.777,0.242-1.174,0.38c-0.397,0.137-0.799,0.286-1.207,0.445
		c-1.067,0.417-2.057,0.933-2.986,1.524c-0.929,0.591-1.797,1.259-2.622,1.98c-0.825,0.722-1.606,1.497-2.36,2.306
		s-1.482,1.649-2.2,2.501c-0.718,0.852-1.426,1.714-2.142,2.566c-0.716,0.851-1.439,1.692-2.186,2.5
		c-0.747,0.808-1.519,1.583-2.333,2.303C944.033,131.763,943.179,132.429,942.266,133.019z"/>
	<path style="fill:none;stroke:#87195F;stroke-width:0.4462;stroke-linecap:round;stroke-linejoin:round;stroke-miterlimit:10;" d="
		M961.558,136.693c0.974,0.059,1.867,0.085,2.634,0.085c1.054,0,2.104-0.07,3.133-0.205c1.029-0.135,2.039-0.336,3.013-0.597
		c0.974-0.262,1.913-0.585,2.801-0.965c0.888-0.38,1.726-0.817,2.498-1.307c0.772-0.49,1.478-1.032,2.102-1.624
		c0.625-0.591,1.168-1.231,1.615-1.915s0.798-1.412,1.036-2.181c0.239-0.769,0.366-1.577,0.366-2.422
		c0-0.538-0.06-1.069-0.175-1.588c-0.116-0.519-0.287-1.026-0.512-1.517c-0.224-0.491-0.501-0.964-0.827-1.416
		c-0.326-0.452-0.701-0.883-1.123-1.287c-0.421-0.404-0.888-0.782-1.397-1.129c-0.509-0.347-1.061-0.662-1.651-0.941
		c-0.591-0.279-1.22-0.522-1.885-0.725s-1.365-0.363-2.098-0.479"/>
	
		<rect x="0.5" y="0.5" style="opacity:0;fill:none;stroke:#EE9077;stroke-width:0.8923;stroke-linecap:round;stroke-linejoin:round;stroke-miterlimit:10;" width="1920" height="1080"/>
</g>
<g id="&#x5716;&#x5C64;_1">
</g>
</svg>
