<?xml version="1.0" encoding="iso-8859-1"?>
<!-- Generator: Adobe Illustrator 24.0.2, SVG Export Plug-In . SVG Version: 6.00 Build 0)  -->
<svg version="1.1" xmlns="http://www.w3.org/2000/svg" xmlns:xlink="http://www.w3.org/1999/xlink" x="0px" y="0px"
	 viewBox="0 0 1920 1080" style="enable-background:new 0 0 1920 1080;" xml:space="preserve">
<g id="hair3">
	<path style="fill:#330133;" d="M914.298,133.1c0.629,1.083,1.286,2.119,1.97,3.106c0.684,0.987,1.396,1.923,2.136,2.807
		s1.508,1.715,2.305,2.489c0.797,0.775,1.623,1.493,2.479,2.152c0.856,0.659,1.742,1.259,2.658,1.796
		c0.916,0.537,1.862,1.012,2.84,1.421c0.977,0.409,1.986,0.752,3.026,1.027c1.04,0.274,2.112,0.48,3.217,0.613
		c1.442,0.174,2.909,0.224,4.371,0.164c1.462-0.06,2.92-0.23,4.343-0.495c1.423-0.265,2.813-0.626,4.138-1.068
		c1.326-0.442,2.587-0.966,3.756-1.556s2.244-1.248,3.197-1.958c0.953-0.71,1.783-1.473,2.461-2.274
		c0.678-0.801,1.204-1.641,1.548-2.505c0.344-0.864,0.507-1.752,0.458-2.65c-0.065-1.195-0.3-2.249-0.675-3.179
		c-0.375-0.93-0.889-1.735-1.512-2.432s-1.356-1.286-2.166-1.784c-0.811-0.498-1.699-0.904-2.636-1.236
		c-0.937-0.332-1.921-0.589-2.922-0.788c-1.001-0.199-2.02-0.34-3.024-0.439c-1.005-0.099-1.996-0.157-2.943-0.191
		c-0.947-0.033-1.85-0.041-2.677-0.041c-1.18,0-2.343,0.043-3.49,0.127c-1.148,0.084-2.28,0.209-3.401,0.372
		s-2.229,0.364-3.328,0.601c-1.099,0.237-2.189,0.51-3.272,0.815c-1.083,0.306-2.159,0.645-3.232,1.015s-2.141,0.77-3.209,1.199
		c-1.068,0.429-2.134,0.886-3.203,1.368C916.443,132.061,915.373,132.569,914.298,133.1z"/>
	<path style="fill:none;stroke:#87195F;stroke-width:0.4462;stroke-linecap:round;stroke-linejoin:round;stroke-miterlimit:10;" d="
		M924.272,136.86c0.422,0.652,0.863,1.262,1.325,1.83c0.462,0.568,0.945,1.095,1.453,1.58c0.508,0.485,1.04,0.929,1.6,1.332
		c0.56,0.403,1.147,0.765,1.765,1.086c0.618,0.321,1.266,0.601,1.948,0.841c0.682,0.24,1.397,0.439,2.15,0.598
		c0.752,0.159,1.541,0.278,2.37,0.358c0.829,0.079,1.697,0.119,2.608,0.119c0.938,0,1.889-0.049,2.833-0.15
		c0.944-0.1,1.883-0.252,2.798-0.458c0.915-0.206,1.807-0.465,2.658-0.781c0.851-0.316,1.661-0.688,2.412-1.118
		c0.751-0.431,1.444-0.92,2.06-1.47c0.616-0.55,1.156-1.161,1.602-1.836s0.798-1.412,1.039-2.216c0.241-0.804,0.37-1.673,0.37-2.611
		c0-0.55-0.076-1.085-0.216-1.6c-0.14-0.515-0.345-1.011-0.602-1.483c-0.257-0.471-0.566-0.918-0.917-1.336
		s-0.741-0.805-1.161-1.159c-0.42-0.354-0.869-0.673-1.335-0.953c-0.466-0.28-0.95-0.521-1.439-0.717
		c-0.489-0.197-0.983-0.349-1.471-0.452c-0.488-0.103-0.97-0.157-1.434-0.157c-0.2,0-0.394,0.011-0.58,0.035
		s-0.364,0.059-0.532,0.106c-0.168,0.048-0.327,0.107-0.474,0.18s-0.284,0.158-0.408,0.256c-0.124,0.098-0.236,0.21-0.333,0.335
		s-0.181,0.264-0.249,0.416c-0.068,0.153-0.12,0.319-0.156,0.5c-0.035,0.181-0.054,0.376-0.054,0.587"/>
	
		<rect x="0.5" y="0.5" style="opacity:0;fill:none;stroke:#EE9077;stroke-width:0.8923;stroke-linecap:round;stroke-linejoin:round;stroke-miterlimit:10;" width="1920" height="1080"/>
</g>
<g id="&#x5716;&#x5C64;_1">
</g>
</svg>
