<?xml version="1.0" encoding="iso-8859-1"?>
<!-- Generator: Adobe Illustrator 24.0.2, SVG Export Plug-In . SVG Version: 6.00 Build 0)  -->
<svg version="1.1" xmlns="http://www.w3.org/2000/svg" xmlns:xlink="http://www.w3.org/1999/xlink" x="0px" y="0px"
	 viewBox="0 0 1920 1080" style="enable-background:new 0 0 1920 1080;" xml:space="preserve">
<g id="hair_small_2">
	<path style="fill:#330133;" d="M926.075,117.255c-0.3-0.358-0.597-0.729-0.885-1.11c-0.287-0.381-0.564-0.772-0.822-1.17
		c-0.258-0.398-0.496-0.803-0.707-1.213c-0.211-0.409-0.395-0.823-0.542-1.238c-0.147-0.415-0.259-0.831-0.325-1.246
		c-0.067-0.415-0.089-0.827-0.058-1.236c0.031-0.408,0.115-0.812,0.261-1.208c0.146-0.396,0.354-0.785,0.631-1.163
		c0.039-0.054,0.08-0.104,0.122-0.15s0.085-0.087,0.129-0.124c0.044-0.037,0.089-0.069,0.135-0.096
		c0.046-0.027,0.093-0.048,0.142-0.063c0.048-0.015,0.098-0.025,0.148-0.028c0.05-0.003,0.102,0.001,0.154,0.011
		c0.052,0.011,0.106,0.029,0.16,0.054c0.054,0.025,0.11,0.059,0.166,0.1c0.008,0.006,0.016,0.012,0.024,0.018
		c0.008,0.006,0.016,0.012,0.024,0.019c0.008,0.006,0.016,0.013,0.024,0.02c0.008,0.007,0.016,0.014,0.024,0.021
		c0.008,0.007,0.016,0.014,0.024,0.022c0.008,0.007,0.016,0.015,0.024,0.023c0.008,0.008,0.016,0.016,0.024,0.024
		c0.008,0.008,0.016,0.016,0.025,0.025c0.245,0.254,0.43,0.552,0.569,0.886c0.139,0.334,0.232,0.702,0.291,1.096
		c0.059,0.394,0.085,0.813,0.09,1.248c0.005,0.435-0.01,0.885-0.033,1.342c-0.023,0.456-0.054,0.918-0.079,1.377
		c-0.025,0.458-0.046,0.913-0.048,1.354s0.014,0.868,0.061,1.272C925.875,116.527,925.953,116.907,926.075,117.255z"/>
	
		<rect x="0.5" y="0.5" style="opacity:0;fill:none;stroke:#EE9077;stroke-width:0.8923;stroke-linecap:round;stroke-linejoin:round;stroke-miterlimit:10;" width="1920" height="1080"/>
</g>
<g id="&#x5716;&#x5C64;_1">
</g>
</svg>
