<?xml version="1.0" encoding="iso-8859-1"?>
<!-- Generator: Adobe Illustrator 24.0.2, SVG Export Plug-In . SVG Version: 6.00 Build 0)  -->
<svg version="1.1" xmlns="http://www.w3.org/2000/svg" xmlns:xlink="http://www.w3.org/1999/xlink" x="0px" y="0px"
	 viewBox="0 0 1920 1080" style="enable-background:new 0 0 1920 1080;" xml:space="preserve">
<g id="hair_4">
	<path style="fill:#330133;" d="M929.327,117.843c-0.042-0.018-0.084-0.036-0.126-0.054c-0.042-0.018-0.084-0.035-0.126-0.053
		c-0.042-0.017-0.084-0.035-0.126-0.052s-0.084-0.034-0.126-0.051c-0.042-0.017-0.084-0.033-0.126-0.05
		c-0.042-0.016-0.084-0.033-0.126-0.049c-0.042-0.016-0.084-0.032-0.126-0.048c-0.042-0.016-0.084-0.031-0.127-0.047
		c-0.042-0.015-0.084-0.031-0.127-0.046c-0.042-0.015-0.084-0.03-0.127-0.045c-0.042-0.015-0.084-0.029-0.127-0.044
		s-0.084-0.029-0.127-0.043c-0.042-0.014-0.085-0.028-0.127-0.042c-0.042-0.014-0.085-0.027-0.127-0.041s-0.085-0.027-0.127-0.04
		c-0.042-0.013-0.085-0.026-0.127-0.039s-0.085-0.025-0.127-0.037c-0.042-0.012-0.085-0.024-0.127-0.036
		c-0.042-0.012-0.085-0.024-0.127-0.035c-0.042-0.012-0.085-0.023-0.127-0.034c-0.042-0.011-0.085-0.022-0.127-0.033
		c-0.042-0.011-0.085-0.022-0.127-0.032c-0.042-0.011-0.085-0.021-0.127-0.031c-0.042-0.01-0.085-0.02-0.128-0.03
		c-0.043-0.01-0.085-0.02-0.128-0.029s-0.085-0.019-0.128-0.028c-0.043-0.009-0.085-0.018-0.128-0.027s-0.085-0.018-0.128-0.026
		s-0.085-0.017-0.128-0.025c-0.043-0.008-0.085-0.016-0.128-0.024c-0.043-0.008-0.085-0.016-0.128-0.023
		c-0.043-0.008-0.085-0.015-0.128-0.022c-0.296-0.05-0.596-0.091-0.898-0.123s-0.608-0.055-0.917-0.069
		c-0.308-0.014-0.619-0.02-0.932-0.017c-0.313,0.003-0.628,0.014-0.945,0.034s-0.635,0.047-0.954,0.083
		c-0.32,0.036-0.64,0.079-0.962,0.131c-0.321,0.051-0.643,0.11-0.966,0.177s-0.645,0.141-0.967,0.222s-0.645,0.17-0.966,0.266
		s-0.643,0.198-0.962,0.308c-0.32,0.109-0.639,0.226-0.956,0.348c-0.317,0.123-0.633,0.252-0.946,0.387s-0.625,0.277-0.934,0.425
		c-0.309,0.148-0.616,0.302-0.919,0.462s-0.604,0.325-0.902,0.496c-0.297,0.171-0.591,0.348-0.881,0.53
		c-0.29,0.182-0.576,0.369-0.858,0.562c-0.282,0.192-0.559,0.39-0.832,0.592c-0.273,0.202-0.541,0.41-0.804,0.622
		c-0.263,0.212-0.52,0.428-0.772,0.649c-0.252,0.221-0.498,0.446-0.738,0.676s-0.474,0.463-0.701,0.7s-0.448,0.479-0.661,0.724
		s-0.42,0.494-0.619,0.746s-0.39,0.508-0.574,0.766s-0.359,0.521-0.526,0.785c-0.167,0.265-0.326,0.533-0.475,0.803
		c-0.15,0.27-0.29,0.544-0.422,0.819c-0.131,0.276-0.254,0.554-0.366,0.834c-0.112,0.28-0.215,0.563-0.307,0.847
		c-0.092,0.285-0.174,0.571-0.245,0.859c-0.071,0.288-0.132,0.578-0.181,0.87c-0.027,0.161-0.053,0.321-0.077,0.482
		c-0.024,0.161-0.046,0.322-0.067,0.482s-0.039,0.321-0.056,0.482c-0.017,0.16-0.032,0.321-0.045,0.48
		c-0.013,0.16-0.024,0.319-0.033,0.478s-0.016,0.317-0.021,0.475s-0.007,0.315-0.007,0.471c0,0.156,0.002,0.312,0.006,0.466
		c0.005,0.155,0.011,0.308,0.021,0.461c0.009,0.153,0.021,0.304,0.036,0.454s0.032,0.299,0.052,0.447
		c0.02,0.148,0.043,0.294,0.068,0.439c0.026,0.145,0.054,0.288,0.085,0.43s0.066,0.282,0.103,0.42
		c0.037,0.138,0.078,0.275,0.121,0.41s0.09,0.267,0.14,0.398c0.05,0.131,0.103,0.259,0.16,0.386c0.057,0.126,0.117,0.251,0.18,0.373
		c0.064,0.122,0.131,0.241,0.201,0.359c0.071,0.117,0.145,0.232,0.223,0.344c0.078,0.112,0.16,0.221,0.245,0.328
		s0.175,0.21,0.268,0.311c0.093,0.101,0.191,0.199,0.292,0.294c0.101,0.095,0.207,0.187,0.316,0.276
		c0.109,0.089,0.223,0.174,0.341,0.257s0.24,0.161,0.367,0.237c0.127,0.076,0.257,0.148,0.393,0.216s0.275,0.133,0.42,0.195
		c0.144,0.061,0.294,0.119,0.447,0.172c0.154,0.054,0.312,0.103,0.475,0.149c0.163,0.046,0.331,0.087,0.504,0.125
		c0.173,0.037,0.351,0.071,0.534,0.1c0.417,0.066,0.834,0.108,1.249,0.126c0.415,0.018,0.83,0.013,1.243-0.015
		c0.413-0.027,0.825-0.077,1.235-0.146s0.819-0.16,1.226-0.269c0.407-0.109,0.812-0.238,1.215-0.384
		c0.403-0.146,0.804-0.31,1.202-0.49c0.398-0.18,0.795-0.376,1.188-0.587c0.393-0.211,0.784-0.437,1.172-0.676
		c0.388-0.239,0.773-0.492,1.155-0.756c0.382-0.264,0.761-0.541,1.136-0.828s0.747-0.584,1.116-0.891s0.733-0.622,1.094-0.945
		c0.361-0.323,0.717-0.654,1.07-0.991s0.701-0.68,1.045-1.028c0.344-0.348,0.683-0.701,1.018-1.057
		c0.335-0.356,0.664-0.715,0.989-1.077s0.645-0.725,0.959-1.088c0.315-0.364,0.624-0.728,0.928-1.091
		c0.304-0.363,0.602-0.725,0.894-1.085c0.292-0.36,0.579-0.717,0.86-1.071c0.281-0.354,0.555-0.704,0.823-1.048
		c0.268-0.345,0.53-0.684,0.785-1.017s0.504-0.659,0.746-0.977c0.242-0.318,0.477-0.628,0.704-0.928s0.448-0.591,0.661-0.871
		c0.213-0.28,0.419-0.549,0.617-0.805c0.198-0.256,0.389-0.501,0.571-0.731c0.182-0.23,0.357-0.447,0.523-0.648
		c0.166-0.201,0.325-0.387,0.474-0.556c0.15-0.169,0.291-0.322,0.424-0.456c0.133-0.134,0.256-0.251,0.371-0.347
		c0.115-0.097,0.221-0.174,0.317-0.23c-0.024-0.042-0.052-0.084-0.083-0.125c-0.031-0.041-0.065-0.082-0.102-0.121
		s-0.078-0.079-0.121-0.118c-0.043-0.039-0.089-0.077-0.138-0.115c-0.049-0.038-0.101-0.075-0.155-0.112
		c-0.054-0.037-0.111-0.073-0.17-0.109c-0.059-0.036-0.12-0.071-0.184-0.106c-0.063-0.035-0.129-0.069-0.196-0.103
		c-0.067-0.034-0.137-0.067-0.208-0.1c-0.071-0.033-0.144-0.066-0.218-0.098c-0.074-0.032-0.15-0.064-0.227-0.095
		s-0.155-0.062-0.235-0.093s-0.16-0.06-0.242-0.09c-0.081-0.03-0.164-0.059-0.247-0.088c-0.083-0.029-0.167-0.057-0.251-0.085
		c-0.084-0.028-0.169-0.056-0.254-0.083c-0.085-0.027-0.171-0.054-0.256-0.081s-0.171-0.053-0.257-0.079
		c-0.086-0.026-0.171-0.052-0.257-0.077c-0.085-0.025-0.17-0.05-0.255-0.075c-0.085-0.025-0.169-0.049-0.252-0.073
		c-0.083-0.024-0.166-0.048-0.248-0.071c-0.082-0.024-0.163-0.047-0.243-0.07c-0.08-0.023-0.159-0.046-0.236-0.068
		c-0.078-0.022-0.154-0.045-0.229-0.067c-0.075-0.022-0.148-0.044-0.22-0.065c-0.072-0.021-0.142-0.043-0.21-0.064
		c-0.068-0.021-0.135-0.042-0.199-0.062s-0.126-0.041-0.186-0.061c-0.06-0.02-0.118-0.04-0.173-0.06s-0.108-0.04-0.158-0.059
		C929.419,117.882,929.372,117.863,929.327,117.843z"/>
	<path style="fill:none;stroke:#87195F;stroke-width:0.4462;stroke-linecap:round;stroke-linejoin:round;stroke-miterlimit:10;" d="
		M906.866,127.335c-0.38,0.318-0.721,0.66-1.028,1.02s-0.579,0.735-0.82,1.121c-0.241,0.386-0.451,0.781-0.634,1.178
		c-0.183,0.397-0.338,0.796-0.47,1.19c-0.132,0.394-0.24,0.782-0.328,1.158s-0.156,0.738-0.207,1.081
		c-0.051,0.343-0.086,0.665-0.108,0.959c-0.022,0.295-0.031,0.562-0.031,0.793c0,0.332,0.039,0.649,0.113,0.949
		c0.074,0.3,0.184,0.584,0.325,0.85s0.315,0.514,0.516,0.743c0.202,0.229,0.432,0.438,0.687,0.627
		c0.255,0.189,0.535,0.357,0.836,0.503s0.624,0.27,0.964,0.37c0.34,0.1,0.699,0.177,1.071,0.228s0.76,0.078,1.158,0.078
		c0.381,0,0.772-0.024,1.17-0.074c0.398-0.05,0.803-0.125,1.211-0.227c0.409-0.102,0.821-0.231,1.234-0.387
		c0.413-0.157,0.827-0.341,1.239-0.555c0.412-0.214,0.821-0.457,1.225-0.731c0.404-0.274,0.803-0.578,1.193-0.914
		c0.39-0.336,0.772-0.703,1.143-1.104c0.37-0.401,0.729-0.834,1.074-1.302"/>
	
		<rect x="0.5" y="0.5" style="opacity:0;fill:none;stroke:#EE9077;stroke-width:0.8923;stroke-linecap:round;stroke-linejoin:round;stroke-miterlimit:10;" width="1920" height="1080"/>
</g>
<g id="&#x5716;&#x5C64;_1">
</g>
</svg>
