<?xml version="1.0" encoding="iso-8859-1"?>
<!-- Generator: Adobe Illustrator 24.0.2, SVG Export Plug-In . SVG Version: 6.00 Build 0)  -->
<svg version="1.1" xmlns="http://www.w3.org/2000/svg" xmlns:xlink="http://www.w3.org/1999/xlink" x="0px" y="0px"
	 viewBox="0 0 1920 1080" style="enable-background:new 0 0 1920 1080;" xml:space="preserve">
<g id="head">
	<path style="fill:#FFC4B8;" d="M965.349,143.321c-1.083-15.412-13.972-27.17-29.208-27.073
		c-15.235-0.097-28.125,11.661-29.208,27.073c-0.087,1.236-0.086,2.457-0.02,3.663l2.89,37.157
		c0.305,10.011,4.148,20.27,12.823,25.277c0.029,0.016,8.004,3.572,15.298,3.415c6.97-0.15,10.039-0.675,14.589-3.861
		c8.205-5.745,9.713-14.37,10.018-24.382l2.837-37.607C965.435,145.778,965.436,144.557,965.349,143.321z"/>
	
		<rect x="0.5" y="0.5" style="opacity:0;fill:none;stroke:#EE9077;stroke-width:0.8923;stroke-linecap:round;stroke-linejoin:round;stroke-miterlimit:10;" width="1920" height="1080"/>
</g>
<g id="&#x5716;&#x5C64;_1">
</g>
</svg>
