<?xml version="1.0" encoding="iso-8859-1"?>
<!-- Generator: Adobe Illustrator 24.0.2, SVG Export Plug-In . SVG Version: 6.00 Build 0)  -->
<svg version="1.1" xmlns="http://www.w3.org/2000/svg" xmlns:xlink="http://www.w3.org/1999/xlink" x="0px" y="0px"
	 viewBox="0 0 1920 1080" style="enable-background:new 0 0 1920 1080;" xml:space="preserve">
<g id="leg_A1">
	<path style="fill:#001F6B;" d="M865.606,668.921l7.223-167.289c-0.038-1.01-0.036-2.03,0.021-3.059
		c0.041-0.753,0.117-1.496,0.208-2.233l0.001-0.03l0.003,0c2.094-16.851,16.909-29.44,34.119-28.495
		c17.974,0.987,31.745,16.357,30.758,34.331c-0.029,0.525-0.072,1.045-0.125,1.562l0.06,0.007
		c0.454,6.513-18.788,168.142-18.788,168.142c-0.811,14.768-13.44,26.082-28.207,25.271
		C876.109,696.318,864.795,683.689,865.606,668.921z"/>
	
		<rect x="0.5" y="0.5" style="opacity:0;fill:none;stroke:#EE9077;stroke-width:0.8923;stroke-linecap:round;stroke-linejoin:round;stroke-miterlimit:10;" width="1920" height="1080"/>
</g>
<g id="&#x5716;&#x5C64;_1">
</g>
</svg>
