<?xml version="1.0" encoding="iso-8859-1"?>
<!-- Generator: Adobe Illustrator 24.0.2, SVG Export Plug-In . SVG Version: 6.00 Build 0)  -->
<svg version="1.1" xmlns="http://www.w3.org/2000/svg" xmlns:xlink="http://www.w3.org/1999/xlink" x="0px" y="0px"
	 viewBox="0 0 1920 1080" style="enable-background:new 0 0 1920 1080;" xml:space="preserve">
<g id="leg_B1">
	<path style="fill:#001F6B;" d="M1011.17,670.342l-7.223-167.289c0.038-1.01,0.036-2.03-0.021-3.059
		c-0.041-0.753-0.117-1.496-0.208-2.233l-0.001-0.03l-0.003,0c-2.094-16.851-16.909-29.44-34.119-28.495
		c-17.974,0.987-31.745,16.357-30.758,34.331c0.029,0.525,0.072,1.045,0.125,1.562l-0.06,0.007
		c-0.454,6.513,18.788,168.142,18.788,168.142c0.811,14.768,13.44,26.082,28.207,25.271
		C1000.666,697.738,1011.98,685.11,1011.17,670.342z"/>
	
		<rect x="0.5" y="0.5" style="opacity:0;fill:none;stroke:#EE9077;stroke-width:0.8923;stroke-linecap:round;stroke-linejoin:round;stroke-miterlimit:10;" width="1920" height="1080"/>
	
		<rect x="0.5" y="0.5" style="opacity:0;fill:none;stroke:#EE9077;stroke-width:0.8923;stroke-linecap:round;stroke-linejoin:round;stroke-miterlimit:10;" width="1920" height="1080"/>
</g>
<g id="&#x5716;&#x5C64;_1">
</g>
</svg>
