<?xml version="1.0" encoding="iso-8859-1"?>
<!-- Generator: Adobe Illustrator 24.0.2, SVG Export Plug-In . SVG Version: 6.00 Build 0)  -->
<svg version="1.1" xmlns="http://www.w3.org/2000/svg" xmlns:xlink="http://www.w3.org/1999/xlink" x="0px" y="0px"
	 viewBox="0 0 1920 1080" style="enable-background:new 0 0 1920 1080;" xml:space="preserve">
<g id="shoe_b">
	<path style="fill:#347FAD;" d="M877.733,905.772c0.363-0.175,0.715-0.362,1.056-0.562s0.671-0.412,0.988-0.637
		c3.142-2.228,4.256-5.207,5.022-7.939c0.766-2.732,1.183-5.217,2.932-6.457c1.044-0.74,2.374-0.411,3.576,0.376
		c1.202,0.788,2.277,2.035,2.812,3.13c1.702,3.49-1.725,8.37-5.913,11.449C884.018,908.213,879.071,909.49,877.733,905.772z"/>
	<path style="fill:#3E226F;" d="M791.875,926.917c0,0,0.004-0.028,0.013-0.082c0.009-0.054,0.024-0.133,0.046-0.236
		c0.022-0.102,0.051-0.227,0.088-0.372c0.038-0.145,0.084-0.31,0.14-0.492c0.056-0.182,0.123-0.382,0.201-0.596
		c0.078-0.214,0.169-0.442,0.272-0.683c0.104-0.24,0.221-0.492,0.352-0.753c0.132-0.261,0.279-0.53,0.442-0.806
		c0.163-0.276,0.343-0.558,0.542-0.843c0.198-0.285,0.414-0.574,0.65-0.863c0.236-0.289,0.492-0.579,0.769-0.866
		c0.277-0.287,0.575-0.573,0.896-0.853c0.321-0.28,0.665-0.556,1.034-0.823s0.761-0.527,1.18-0.776
		c0.419-0.249,0.864-0.488,1.337-0.713s0.973-0.437,1.503-0.633c0.405-0.15,0.913-0.335,1.512-0.555
		c0.599-0.219,1.288-0.473,2.054-0.758c0.767-0.286,1.611-0.604,2.52-0.952c0.909-0.349,1.882-0.728,2.907-1.136
		c1.025-0.408,2.102-0.846,3.218-1.31c1.116-0.465,2.271-0.957,3.451-1.474s2.388-1.061,3.607-1.628
		c1.22-0.567,2.453-1.159,3.686-1.773c1.233-0.614,2.467-1.25,3.688-1.907s2.429-1.335,3.612-2.032
		c1.183-0.697,2.34-1.413,3.459-2.146s2.199-1.484,3.229-2.251c1.029-0.767,2.007-1.549,2.921-2.345
		c0.914-0.797,1.764-1.607,2.536-2.43s1.469-1.659,2.074-2.505c0.606-0.846,1.122-1.704,1.535-2.57
		c0.375-0.786,0.749-1.456,1.12-2.02c0.372-0.564,0.741-1.023,1.106-1.389c0.365-0.365,0.727-0.637,1.084-0.826
		c0.357-0.189,0.708-0.297,1.054-0.333c0.345-0.037,0.684-0.003,1.016,0.091s0.655,0.246,0.969,0.445
		c0.314,0.2,0.62,0.448,0.915,0.731c0.295,0.284,0.58,0.603,0.853,0.948c0.273,0.344,0.534,0.713,0.782,1.095
		c0.248,0.382,0.483,0.777,0.704,1.173s0.427,0.794,0.618,1.183c0.191,0.388,0.366,0.766,0.523,1.123s0.299,0.691,0.421,0.993
		c0.122,0.302,0.226,0.571,0.311,0.795c0.084,0.224,0.149,0.404,0.192,0.528c0.043,0.124,0.066,0.191,0.066,0.191
		s0.021,0.024,0.063,0.069s0.105,0.112,0.187,0.196c0.082,0.085,0.184,0.187,0.305,0.305c0.121,0.118,0.261,0.251,0.419,0.397
		c0.158,0.146,0.334,0.304,0.527,0.471c0.193,0.167,0.404,0.344,0.631,0.527c0.227,0.183,0.47,0.372,0.729,0.565
		s0.533,0.389,0.823,0.586c0.289,0.197,0.593,0.394,0.911,0.589c0.318,0.195,0.65,0.388,0.995,0.575
		c0.345,0.187,0.703,0.369,1.073,0.542s0.753,0.339,1.147,0.492s0.799,0.296,1.215,0.425c0.416,0.128,0.842,0.242,1.279,0.339
		c0.436,0.097,0.882,0.177,1.337,0.236c0.455,0.06,0.919,0.099,1.391,0.115c0.965,0.033,1.895,0.038,2.791,0.018
		c0.896-0.02,1.758-0.066,2.586-0.133s1.623-0.156,2.385-0.263c0.762-0.107,1.491-0.232,2.187-0.372s1.36-0.295,1.993-0.461
		c0.632-0.166,1.232-0.344,1.801-0.529c0.569-0.185,1.107-0.379,1.614-0.577c0.507-0.198,0.983-0.4,1.429-0.604
		c0.446-0.203,0.862-0.408,1.248-0.61c0.386-0.202,0.743-0.402,1.071-0.595c0.328-0.194,0.627-0.382,0.897-0.56
		c0.27-0.179,0.512-0.348,0.726-0.505c0.214-0.157,0.4-0.301,0.559-0.429c0.159-0.128,0.29-0.24,0.395-0.332
		c0.105-0.092,0.183-0.165,0.234-0.214c0.052-0.049,0.077-0.076,0.077-0.076s0.034,0.08,0.096,0.232
		c0.062,0.153,0.152,0.378,0.264,0.669s0.246,0.647,0.395,1.062c0.149,0.415,0.314,0.888,0.488,1.412s0.358,1.1,0.544,1.719
		s0.376,1.283,0.562,1.983c0.186,0.7,0.37,1.437,0.543,2.204c0.174,0.767,0.338,1.563,0.487,2.382
		c0.149,0.819,0.282,1.66,0.393,2.517c0.111,0.857,0.201,1.728,0.262,2.608c0.061,0.88,0.094,1.768,0.093,2.657
		c-0.001,0.889-0.037,1.779-0.113,2.662s-0.193,1.761-0.356,2.624c-0.163,0.864-0.374,1.714-0.637,2.544
		c-0.263,0.83-0.58,1.639-0.955,2.42c-0.376,0.781-0.81,1.534-1.311,2.253l-6.437,0.081l-6.437,0.081l-6.437,0.081l-6.437,0.081
		l-6.437,0.081l-6.437,0.081l-6.437,0.081l-6.437,0.081l-6.437,0.081l-6.437,0.081l-6.437,0.081l-6.437,0.081l-6.437,0.081
		l-6.437,0.081l-6.437,0.081L791.875,926.917z"/>
	<polygon style="fill:#FFFFFF;" points="872.949,929.372 872.297,929.688 871.644,930.004 870.991,930.32 870.338,930.636 
		869.685,930.952 869.032,931.268 868.379,931.585 867.727,931.901 866.326,929.162 864.925,926.424 863.524,923.686 
		862.123,920.948 860.722,918.209 859.321,915.471 857.92,912.733 856.519,909.994 857.172,909.678 857.825,909.362 
		858.478,909.046 859.131,908.73 859.783,908.414 860.436,908.098 861.089,907.782 861.742,907.466 863.143,910.204 
		864.544,912.942 865.945,915.681 867.346,918.419 868.747,921.157 870.148,923.896 871.548,926.634 	"/>
	<polygon style="fill:#FFFFFF;" points="883.111,926.884 882.458,927.2 881.805,927.517 881.153,927.833 880.5,928.149 
		879.847,928.465 879.194,928.781 878.541,929.097 877.888,929.413 876.487,926.675 875.087,923.936 873.686,921.198 
		872.285,918.46 870.884,915.722 869.483,912.983 868.082,910.245 866.681,907.507 867.334,907.191 867.987,906.875 868.64,906.559 
		869.292,906.242 869.945,905.926 870.598,905.61 871.251,905.294 871.904,904.978 873.305,907.716 874.706,910.455 
		876.107,913.193 877.507,915.931 878.908,918.67 880.309,921.408 881.71,924.146 	"/>
	<path style="fill:#CCE8ED;" d="M791.875,926.917c0,0-0.007,0.119-0.002,0.328c0.004,0.209,0.02,0.508,0.066,0.868
		s0.12,0.78,0.242,1.232c0.122,0.452,0.292,0.935,0.528,1.421c0.236,0.486,0.537,0.974,0.922,1.435
		c0.385,0.461,0.854,0.895,1.425,1.273c0.571,0.378,1.244,0.699,2.037,0.936c0.793,0.236,1.706,0.387,2.757,0.423l11.364,0.005
		l11.364,0.004l11.364,0.005l11.364,0.004l11.364,0.005l11.364,0.004l11.364,0.005l11.364,0.005c0.307,0,0.608-0.03,0.901-0.086
		c0.293-0.057,0.576-0.14,0.847-0.247c0.271-0.107,0.53-0.238,0.773-0.388c0.243-0.151,0.47-0.322,0.677-0.51
		c0.207-0.188,0.395-0.394,0.56-0.613c0.165-0.219,0.306-0.452,0.421-0.696c0.115-0.244,0.203-0.498,0.261-0.759
		s0.085-0.53,0.079-0.803l-0.015-0.663l-0.015-0.663l-0.015-0.663l-0.015-0.663l-0.015-0.663l-0.015-0.663l-0.015-0.663
		l-0.015-0.663l-12.91,0.182l-12.91,0.182l-12.91,0.182l-12.91,0.182l-12.91,0.182l-12.91,0.182l-12.91,0.182L791.875,926.917z"/>
	<path style="fill:none;stroke:#347FAD;stroke-width:1.1152;stroke-linecap:round;stroke-linejoin:round;stroke-miterlimit:10;" d="
		M820.714,916.702c0.762-0.146,1.559-0.33,2.384-0.549c0.825-0.219,1.679-0.473,2.555-0.759s1.775-0.603,2.69-0.95
		c0.915-0.346,1.846-0.721,2.788-1.121c0.942-0.4,1.894-0.826,2.851-1.274c0.957-0.448,1.917-0.918,2.877-1.407
		c0.959-0.489,1.917-0.997,2.867-1.521c0.95-0.524,1.892-1.063,2.82-1.616c0.928-0.552,1.843-1.117,2.738-1.691
		c0.895-0.574,1.77-1.158,2.619-1.747s1.672-1.185,2.464-1.784c0.792-0.599,1.551-1.2,2.273-1.802
		c0.722-0.601,1.406-1.203,2.045-1.8c0.64-0.598,1.236-1.192,1.782-1.779c0.546-0.588,1.042-1.168,1.482-1.739
		c0.44-0.571,0.824-1.132,1.146-1.68"/>
	<path style="fill:#FFFFFF;" d="M846.007,905.391l-0.981-0.752l-0.981-0.752l-0.981-0.752l-0.981-0.752l-0.981-0.752l-0.981-0.752
		l-0.981-0.752l-0.981-0.752c-0.049-0.038-0.093-0.079-0.131-0.124c-0.038-0.045-0.071-0.093-0.099-0.143s-0.05-0.103-0.066-0.156
		s-0.028-0.109-0.033-0.165c-0.005-0.056-0.005-0.113,0-0.169c0.006-0.056,0.017-0.113,0.035-0.168
		c0.017-0.055,0.04-0.109,0.069-0.162c0.029-0.052,0.064-0.103,0.104-0.151l0,0l0,0l0,0l0,0l0,0l0,0l0,0l0,0
		c0.041-0.048,0.085-0.091,0.133-0.128c0.048-0.038,0.099-0.071,0.152-0.098c0.053-0.028,0.109-0.05,0.166-0.067
		c0.057-0.017,0.115-0.029,0.174-0.036c0.059-0.007,0.118-0.008,0.177-0.004c0.059,0.004,0.118,0.014,0.175,0.029
		c0.057,0.015,0.114,0.036,0.168,0.062s0.106,0.058,0.155,0.096l0.981,0.752l0.981,0.752l0.981,0.752l0.981,0.752l0.981,0.752
		l0.981,0.752l0.981,0.752l0.981,0.752c0.049,0.038,0.093,0.079,0.131,0.124c0.038,0.045,0.071,0.093,0.099,0.143
		s0.05,0.103,0.066,0.156c0.017,0.054,0.028,0.109,0.033,0.165c0.005,0.056,0.005,0.113,0,0.169
		c-0.006,0.056-0.017,0.113-0.035,0.168s-0.04,0.109-0.069,0.162c-0.029,0.052-0.064,0.103-0.104,0.151l0,0l0,0l0,0l0,0l0,0l0,0l0,0
		l0,0c-0.041,0.048-0.085,0.091-0.133,0.128c-0.048,0.038-0.099,0.071-0.152,0.098c-0.053,0.028-0.109,0.05-0.166,0.067
		c-0.057,0.017-0.115,0.029-0.174,0.036c-0.059,0.007-0.118,0.008-0.177,0.004s-0.118-0.014-0.175-0.029s-0.114-0.036-0.168-0.062
		S846.056,905.428,846.007,905.391z"/>
	<path style="fill:#FFFFFF;" d="M840.987,908.911l-0.981-0.752l-0.981-0.752l-0.981-0.752l-0.981-0.752l-0.981-0.752l-0.981-0.752
		l-0.981-0.752l-0.981-0.752c-0.049-0.038-0.093-0.079-0.131-0.124c-0.038-0.045-0.071-0.093-0.099-0.143s-0.05-0.103-0.066-0.156
		c-0.017-0.054-0.028-0.109-0.033-0.165s-0.005-0.113,0-0.169c0.006-0.056,0.017-0.113,0.035-0.168
		c0.017-0.055,0.04-0.109,0.069-0.162c0.029-0.052,0.064-0.103,0.104-0.151l0,0l0,0l0,0l0,0l0,0l0,0l0,0l0,0
		c0.041-0.048,0.085-0.091,0.133-0.128c0.048-0.038,0.099-0.071,0.152-0.098c0.053-0.028,0.109-0.05,0.166-0.067
		c0.057-0.017,0.115-0.029,0.174-0.036c0.059-0.007,0.118-0.008,0.177-0.004s0.118,0.014,0.175,0.029s0.114,0.036,0.168,0.062
		s0.106,0.058,0.155,0.096l0.981,0.752l0.981,0.752l0.981,0.752l0.981,0.752l0.981,0.752l0.981,0.752l0.981,0.752l0.981,0.752
		c0.049,0.038,0.093,0.079,0.131,0.124c0.038,0.045,0.071,0.093,0.099,0.143c0.028,0.05,0.05,0.103,0.066,0.156
		s0.028,0.109,0.033,0.165s0.005,0.113,0,0.169c-0.006,0.056-0.017,0.113-0.035,0.168c-0.017,0.055-0.04,0.109-0.069,0.162
		c-0.029,0.052-0.064,0.103-0.104,0.151l0,0l0,0l0,0l0,0l0,0l0,0l0,0l0,0c-0.041,0.048-0.085,0.091-0.133,0.128
		c-0.048,0.038-0.099,0.071-0.152,0.098c-0.053,0.028-0.109,0.05-0.166,0.067c-0.057,0.017-0.115,0.029-0.174,0.036
		s-0.118,0.008-0.177,0.004c-0.059-0.004-0.118-0.014-0.175-0.029c-0.057-0.015-0.114-0.036-0.168-0.062
		C841.088,908.98,841.036,908.948,840.987,908.911z"/>
	<path style="fill:#FFFFFF;" d="M835.554,912.277l-0.981-0.752l-0.981-0.752l-0.981-0.752l-0.981-0.752l-0.981-0.752l-0.981-0.752
		l-0.981-0.752l-0.981-0.752c-0.049-0.038-0.093-0.079-0.131-0.124c-0.038-0.045-0.071-0.093-0.099-0.143s-0.05-0.103-0.066-0.156
		c-0.017-0.054-0.028-0.109-0.033-0.165c-0.005-0.056-0.005-0.113,0-0.169c0.006-0.056,0.017-0.113,0.035-0.168
		c0.017-0.055,0.04-0.109,0.069-0.162c0.029-0.052,0.064-0.103,0.104-0.151l0,0l0,0l0,0l0,0l0,0l0,0l0,0l0,0
		c0.041-0.048,0.085-0.091,0.133-0.128s0.099-0.071,0.152-0.098c0.053-0.028,0.109-0.05,0.166-0.067
		c0.057-0.017,0.115-0.029,0.174-0.036c0.059-0.007,0.118-0.008,0.177-0.004c0.059,0.004,0.118,0.014,0.175,0.029
		s0.114,0.036,0.168,0.062c0.054,0.026,0.106,0.058,0.155,0.096l0.981,0.752l0.981,0.752l0.981,0.752l0.981,0.752l0.981,0.752
		l0.981,0.752l0.981,0.752l0.981,0.752c0.049,0.038,0.093,0.079,0.131,0.124c0.038,0.045,0.071,0.093,0.099,0.143
		c0.028,0.05,0.05,0.103,0.066,0.156s0.028,0.109,0.033,0.165c0.005,0.056,0.005,0.113,0,0.169
		c-0.006,0.056-0.017,0.113-0.035,0.168c-0.017,0.055-0.04,0.109-0.069,0.162c-0.029,0.052-0.064,0.103-0.104,0.151l0,0l0,0l0,0l0,0
		l0,0l0,0l0,0l0,0c-0.041,0.048-0.085,0.091-0.133,0.128c-0.048,0.038-0.099,0.071-0.152,0.098c-0.053,0.028-0.109,0.05-0.166,0.067
		c-0.057,0.017-0.115,0.029-0.174,0.036s-0.118,0.008-0.177,0.004c-0.059-0.004-0.118-0.014-0.175-0.029
		c-0.057-0.015-0.114-0.036-0.168-0.062C835.656,912.347,835.604,912.315,835.554,912.277z"/>
	
		<rect x="0.5" y="0.5" style="opacity:0;fill:none;stroke:#EE9077;stroke-width:0.8923;stroke-linecap:round;stroke-linejoin:round;stroke-miterlimit:10;" width="1920" height="1080"/>
</g>
<g id="&#x5716;&#x5C64;_1">
</g>
</svg>
