<?xml version="1.0" encoding="iso-8859-1"?>
<!-- Generator: Adobe Illustrator 24.0.2, SVG Export Plug-In . SVG Version: 6.00 Build 0)  -->
<svg version="1.1" xmlns="http://www.w3.org/2000/svg" xmlns:xlink="http://www.w3.org/1999/xlink" x="0px" y="0px"
	 viewBox="0 0 1920 1080" style="enable-background:new 0 0 1920 1080;" xml:space="preserve">
<g id="torso">
	<polygon style="fill:#A0DBE3;" points="864,266 870.188,262.25 876.375,258.5 882.563,254.75 888.75,251 894.938,247.25 
		901.125,243.5 907.313,239.75 913.5,236 916.563,240.093 919.625,244.185 922.688,248.278 925.75,252.37 928.813,256.463 
		931.875,260.555 934.938,264.648 938,268.74 941,264.648 944,260.555 947,256.463 950,252.37 953,248.278 956,244.185 959,240.093 
		962,236 968.125,239.657 974.25,243.315 980.375,246.972 986.5,250.63 992.625,254.287 998.75,257.944 1004.875,261.602 
		1011,265.259 1010.083,290.352 1009.167,315.444 1008.25,340.537 1007.333,365.63 1006.417,390.722 1005.5,415.815 
		1004.583,440.907 1003.667,466 987.278,466 970.889,466 954.5,466 938.111,466 921.722,466 905.333,466 888.944,466 872.556,466 
		871.486,441 870.417,416 869.347,391 868.278,366 867.208,341 866.139,316 865.069,291 	"/>
	
		<rect x="0.5" y="0.5" style="opacity:0;fill:none;stroke:#EE9077;stroke-width:0.8923;stroke-linecap:round;stroke-linejoin:round;stroke-miterlimit:10;" width="1920" height="1080"/>
</g>
<g id="&#x5716;&#x5C64;_1">
</g>
</svg>
